<svg width="1200" height="1200" viewBox="0 0 1200 1200" fill="none" xmlns="http://www.w3.org/2000/svg">
  <defs>
    <marker id="arrow" markerWidth="14" markerHeight="14" refX="10" refY="7" orient="auto">
      <path d="M0 0L14 7L0 14V0Z" fill="#203449"/>
    </marker>
  </defs>

  <rect width="1200" height="1200" fill="#F4E6C8"/>
  <rect x="24" y="24" width="1152" height="1152" rx="30" fill="#FFF9F1" stroke="#203449" stroke-width="4"/>

  <text x="70" y="105" fill="#203449" font-size="56" font-family="Arial Black, sans-serif">DIRECTOR CAMERA MAP</text>
  <text x="70" y="150" fill="#2C6E91" font-size="24" font-family="Helvetica Neue, Arial, sans-serif">1:1 blocking board for the live-action sitcom apartment scene</text>

  <rect x="70" y="185" width="1060" height="735" rx="26" fill="#FAF3E6" stroke="#203449" stroke-width="3"/>

  <rect x="105" y="225" width="690" height="655" rx="24" fill="#F8EDD8" stroke="#203449" stroke-width="3"/>

  <rect x="150" y="275" width="170" height="155" rx="18" fill="#D8E9EE" stroke="#203449" stroke-width="3"/>
  <text x="183" y="360" fill="#203449" font-size="28" font-family="Arial Black, sans-serif">KITCHEN</text>

  <rect x="400" y="300" width="230" height="135" rx="22" fill="#CFB69A" stroke="#203449" stroke-width="3"/>
  <text x="474" y="375" fill="#203449" font-size="28" font-family="Arial Black, sans-serif">SOFA</text>

  <rect x="450" y="495" width="130" height="74" rx="16" fill="#B88D63" stroke="#203449" stroke-width="3"/>
  <text x="475" y="540" fill="#FFF9F1" font-size="22" font-family="Arial Black, sans-serif">TABLE</text>

  <rect x="650" y="310" width="110" height="200" rx="16" fill="#EEDCC0" stroke="#203449" stroke-width="3"/>
  <text x="678" y="420" fill="#203449" font-size="26" font-family="Arial Black, sans-serif">DOOR</text>

  <rect x="670" y="620" width="85" height="60" rx="14" fill="#F6C445" stroke="#203449" stroke-width="3"/>
  <text x="682" y="658" fill="#203449" font-size="20" font-family="Arial Black, sans-serif">FEEDER</text>

  <rect x="555" y="235" width="128" height="42" rx="12" fill="#E6D4B6" stroke="#203449" stroke-width="2"/>
  <text x="575" y="262" fill="#203449" font-size="18" font-family="Arial Black, sans-serif">BOOKSHELF</text>

  <rect x="715" y="545" width="30" height="75" rx="10" fill="#D9C8A8" stroke="#203449" stroke-width="2"/>
  <circle cx="730" cy="530" r="18" fill="#F3E5C9" stroke="#203449" stroke-width="2"/>

  <circle cx="340" cy="515" r="24" fill="#2C6E91"/>
  <text x="305" y="555" fill="#203449" font-size="22" font-family="Arial Black, sans-serif">ETHAN</text>

  <circle cx="635" cy="565" r="24" fill="#D1A82A"/>
  <text x="598" y="605" fill="#203449" font-size="22" font-family="Arial Black, sans-serif">CHLOE</text>

  <circle cx="610" cy="650" r="18" fill="#E38939"/>
  <text x="572" y="687" fill="#203449" font-size="20" font-family="Arial Black, sans-serif">NACHO</text>

  <rect x="120" y="725" width="72" height="48" rx="12" fill="#203449"/>
  <text x="143" y="757" fill="#FFF9F1" font-size="26" font-family="Arial Black, sans-serif">A</text>
  <line x1="194" y1="748" x2="442" y2="681" stroke="#203449" stroke-width="7" marker-end="url(#arrow)"/>

  <rect x="710" y="735" width="72" height="48" rx="12" fill="#203449"/>
  <text x="732" y="767" fill="#FFF9F1" font-size="26" font-family="Arial Black, sans-serif">B</text>
  <line x1="710" y1="758" x2="408" y2="535" stroke="#203449" stroke-width="7" marker-end="url(#arrow)"/>

  <rect x="725" y="645" width="72" height="48" rx="12" fill="#203449"/>
  <text x="747" y="677" fill="#FFF9F1" font-size="26" font-family="Arial Black, sans-serif">C</text>
  <line x1="725" y1="670" x2="655" y2="585" stroke="#203449" stroke-width="7" marker-end="url(#arrow)"/>

  <rect x="485" y="792" width="72" height="48" rx="12" fill="#203449"/>
  <text x="507" y="824" fill="#FFF9F1" font-size="26" font-family="Arial Black, sans-serif">D</text>
  <line x1="521" y1="792" x2="665" y2="685" stroke="#203449" stroke-width="7" marker-end="url(#arrow)"/>

  <rect x="830" y="225" width="265" height="655" rx="22" fill="#FFF9F1" stroke="#203449" stroke-width="3"/>
  <text x="850" y="285" fill="#203449" font-size="30" font-family="Arial Black, sans-serif">CAMERA ROLES</text>

  <rect x="860" y="325" width="38" height="38" rx="8" fill="#F6C445" stroke="#203449" stroke-width="2"/>
  <text x="873" y="351" fill="#203449" font-size="24" font-family="Arial Black, sans-serif">A</text>
  <text x="912" y="348" fill="#203449" font-size="18" font-family="Arial Black, sans-serif">MAIN WIDE</text>
  <text x="912" y="373" fill="#203449" font-size="18" font-family="Arial Black, sans-serif">MASTER</text>
  <text x="912" y="405" fill="#203449" font-size="16" font-family="Helvetica Neue, Arial, sans-serif">Establish the room and keep</text>
  <text x="912" y="429" fill="#203449" font-size="16" font-family="Helvetica Neue, Arial, sans-serif">both characters in the same</text>
  <text x="912" y="453" fill="#203449" font-size="16" font-family="Helvetica Neue, Arial, sans-serif">sitcom frame.</text>

  <rect x="860" y="455" width="38" height="38" rx="8" fill="#F6C445" stroke="#203449" stroke-width="2"/>
  <text x="872" y="481" fill="#203449" font-size="24" font-family="Arial Black, sans-serif">B</text>
  <text x="912" y="478" fill="#203449" font-size="18" font-family="Arial Black, sans-serif">REVERSE FOR</text>
  <text x="912" y="503" fill="#203449" font-size="18" font-family="Arial Black, sans-serif">ETHAN</text>
  <text x="912" y="535" fill="#203449" font-size="16" font-family="Helvetica Neue, Arial, sans-serif">Shoot toward Ethan with</text>
  <text x="912" y="559" fill="#203449" font-size="16" font-family="Helvetica Neue, Arial, sans-serif">Chloe's shoulder side</text>
  <text x="912" y="583" fill="#203449" font-size="16" font-family="Helvetica Neue, Arial, sans-serif">shaping the frame.</text>

  <rect x="860" y="585" width="38" height="38" rx="8" fill="#F6C445" stroke="#203449" stroke-width="2"/>
  <text x="872" y="611" fill="#203449" font-size="24" font-family="Arial Black, sans-serif">C</text>
  <text x="912" y="608" fill="#203449" font-size="18" font-family="Arial Black, sans-serif">REVERSE FOR</text>
  <text x="912" y="633" fill="#203449" font-size="18" font-family="Arial Black, sans-serif">CHLOE</text>
  <text x="912" y="665" fill="#203449" font-size="16" font-family="Helvetica Neue, Arial, sans-serif">Shoot toward Chloe and</text>
  <text x="912" y="689" fill="#203449" font-size="16" font-family="Helvetica Neue, Arial, sans-serif">preserve screen direction</text>
  <text x="912" y="713" fill="#203449" font-size="16" font-family="Helvetica Neue, Arial, sans-serif">from camera A.</text>

  <rect x="860" y="715" width="38" height="38" rx="8" fill="#F6C445" stroke="#203449" stroke-width="2"/>
  <text x="872" y="741" fill="#203449" font-size="24" font-family="Arial Black, sans-serif">D</text>
  <text x="912" y="738" fill="#203449" font-size="18" font-family="Arial Black, sans-serif">LOW CAT</text>
  <text x="912" y="763" fill="#203449" font-size="18" font-family="Arial Black, sans-serif">REVEAL</text>
  <text x="912" y="795" fill="#203449" font-size="16" font-family="Helvetica Neue, Arial, sans-serif">Comedy insert for the</text>
  <text x="912" y="819" fill="#203449" font-size="16" font-family="Helvetica Neue, Arial, sans-serif">feeder button and</text>
  <text x="912" y="843" fill="#203449" font-size="16" font-family="Helvetica Neue, Arial, sans-serif">Nacho's payoff.</text>

  <line x1="70" y1="955" x2="1130" y2="955" stroke="#203449" stroke-width="2"/>
  <text x="70" y="1010" fill="#203449" font-size="28" font-family="Arial Black, sans-serif">BLOCKING RULE</text>
  <text x="70" y="1050" fill="#2C6E91" font-size="24" font-family="Helvetica Neue, Arial, sans-serif">Every storyboard panel should inherit one camera ID so the apartment never flips direction.</text>

  <text x="70" y="1115" fill="#203449" font-size="22" font-family="Helvetica Neue, Arial, sans-serif">Seedance single-board reference. Live-action Western sitcom apartment.</text>
  <text x="828" y="1115" fill="#203449" font-size="20" font-family="Helvetica Neue, Arial, sans-serif">Concept: feeder algorithm debate</text>
</svg>
