<svg width="1600" height="900" viewBox="0 0 1600 900" fill="none" xmlns="http://www.w3.org/2000/svg">
  <rect width="1600" height="900" fill="#F4E6C8"/>
  <rect x="40" y="40" width="1520" height="820" rx="28" fill="#FFF9F1" stroke="#203449" stroke-width="4"/>
  <text x="80" y="112" fill="#203449" font-size="48" font-family="Arial Black, sans-serif">Scene Board</text>
  <text x="80" y="152" fill="#2C6E91" font-size="24" font-family="Helvetica Neue, Arial, sans-serif">Apartment geometry stays fixed so every cut still feels like the same room</text>
  <rect x="90" y="200" width="1410" height="590" rx="32" fill="#F8EDD8" stroke="#203449" stroke-width="3"/>

  <rect x="130" y="250" width="330" height="250" rx="24" fill="#D8E9EE" stroke="#203449" stroke-width="3"/>
  <text x="152" y="290" fill="#203449" font-size="28" font-family="Arial Black, sans-serif">Open Kitchen</text>
  <rect x="155" y="326" width="76" height="144" rx="8" fill="#C6D6E2" stroke="#203449" stroke-width="3"/>
  <text x="166" y="404" fill="#203449" font-size="20" font-family="Helvetica Neue, Arial, sans-serif">Fridge</text>
  <rect x="250" y="332" width="180" height="54" rx="12" fill="#E8CFA9" stroke="#203449" stroke-width="3"/>
  <text x="274" y="366" fill="#203449" font-size="20" font-family="Helvetica Neue, Arial, sans-serif">Counter</text>
  <rect x="248" y="408" width="180" height="54" rx="12" fill="#E8CFA9" stroke="#203449" stroke-width="3"/>
  <text x="282" y="442" fill="#203449" font-size="20" font-family="Helvetica Neue, Arial, sans-serif">Prep Zone</text>

  <rect x="505" y="268" width="440" height="250" rx="30" fill="#CFB69A" stroke="#203449" stroke-width="3"/>
  <text x="540" y="308" fill="#203449" font-size="28" font-family="Arial Black, sans-serif">L-shaped Sofa</text>
  <rect x="600" y="545" width="180" height="96" rx="20" fill="#B88D63" stroke="#203449" stroke-width="3"/>
  <text x="635" y="602" fill="#FFF9F1" font-size="26" font-family="Arial Black, sans-serif">Coffee Table</text>
  <ellipse cx="722" cy="676" rx="180" ry="86" fill="#EFD8B3" stroke="#203449" stroke-width="3"/>
  <text x="666" y="688" fill="#203449" font-size="24" font-family="Helvetica Neue, Arial, sans-serif">Rug / cat route</text>

  <rect x="1010" y="248" width="220" height="324" rx="22" fill="#EEDCC0" stroke="#203449" stroke-width="3"/>
  <text x="1040" y="290" fill="#203449" font-size="28" font-family="Arial Black, sans-serif">Entry Door</text>
  <rect x="1076" y="340" width="88" height="184" rx="10" fill="#9C7A5C" stroke="#203449" stroke-width="3"/>
  <rect x="1250" y="262" width="180" height="176" rx="18" fill="#D8E9EE" stroke="#203449" stroke-width="3"/>
  <text x="1286" y="306" fill="#203449" font-size="28" font-family="Arial Black, sans-serif">Bookshelf</text>
  <rect x="1266" y="472" width="150" height="56" rx="16" fill="#F6C445" stroke="#203449" stroke-width="3"/>
  <text x="1290" y="507" fill="#203449" font-size="22" font-family="Helvetica Neue, Arial, sans-serif">Floor Lamp</text>

  <circle cx="430" cy="550" r="30" fill="#2C6E91"/>
  <text x="478" y="558" fill="#203449" font-size="28" font-family="Arial Black, sans-serif">Ethan activity zone</text>
  <circle cx="976" cy="612" r="30" fill="#D1A82A"/>
  <text x="1024" y="620" fill="#203449" font-size="28" font-family="Arial Black, sans-serif">Chloe activity zone</text>
  <circle cx="548" cy="706" r="26" fill="#E38939"/>
  <text x="594" y="714" fill="#203449" font-size="28" font-family="Arial Black, sans-serif">Nacho enters from sofa edge</text>
</svg>
