<svg width="1600" height="900" viewBox="0 0 1600 900" fill="none" xmlns="http://www.w3.org/2000/svg">
  <rect width="1600" height="900" fill="#F4E6C8"/>
  <rect x="40" y="40" width="1520" height="820" rx="28" fill="#FFF9F1" stroke="#203449" stroke-width="4"/>
  <text x="80" y="112" fill="#203449" font-size="48" font-family="Arial Black, sans-serif">Storyboard: Showcase Video</text>
  <text x="80" y="152" fill="#2C6E91" font-size="24" font-family="Helvetica Neue, Arial, sans-serif">15-second sitcom story with a clean four-beat structure</text>

  <g transform="translate(80 210)">
    <rect width="330" height="250" rx="24" fill="#F8EDD8" stroke="#203449" stroke-width="3"/>
    <rect x="20" y="20" width="290" height="150" rx="18" fill="#C6D6E2"/>
    <rect x="34" y="84" width="76" height="58" rx="10" fill="#D8B491"/>
    <rect x="112" y="94" width="130" height="48" rx="14" fill="#CFB69A"/>
    <circle cx="84" cy="142" r="20" fill="#2C6E91"/>
    <circle cx="250" cy="138" r="18" fill="#D1A82A"/>
    <circle cx="194" cy="152" r="14" fill="#E38939"/>
    <text x="24" y="204" fill="#203449" font-size="22" font-family="Arial Black, sans-serif">Shot 1 / Cam A / 0-3s</text>
    <text x="24" y="236" fill="#203449" font-size="19" font-family="Helvetica Neue, Arial, sans-serif">Hook: Ethan blames Chloe for not feeding the cat.</text>
  </g>

  <g transform="translate(458 210)">
    <rect width="330" height="250" rx="24" fill="#F8EDD8" stroke="#203449" stroke-width="3"/>
    <rect x="20" y="20" width="290" height="150" rx="18" fill="#DCE6EF"/>
    <circle cx="130" cy="95" r="34" fill="#E9C7A7"/>
    <rect x="100" y="126" width="64" height="36" rx="18" fill="#2C6E91"/>
    <rect x="194" y="78" width="92" height="56" rx="12" fill="#D7E8F0" stroke="#203449" stroke-width="3"/>
    <text x="212" y="112" fill="#203449" font-size="18" font-family="Helvetica Neue, Arial, sans-serif">Feeder app</text>
    <text x="24" y="204" fill="#203449" font-size="22" font-family="Arial Black, sans-serif">Shot 2 / Cam B / 3-6.5s</text>
    <text x="24" y="236" fill="#203449" font-size="19" font-family="Helvetica Neue, Arial, sans-serif">Ethan says: "I optimized the schedule."</text>
  </g>

  <g transform="translate(836 210)">
    <rect width="330" height="250" rx="24" fill="#F8EDD8" stroke="#203449" stroke-width="3"/>
    <rect x="20" y="20" width="290" height="150" rx="18" fill="#DCE6EF"/>
    <circle cx="160" cy="95" r="34" fill="#F0D3BE"/>
    <rect x="132" y="125" width="62" height="38" rx="18" fill="#D1A82A"/>
    <rect x="220" y="106" width="40" height="34" rx="8" fill="#F6C445"/>
    <text x="24" y="204" fill="#203449" font-size="22" font-family="Arial Black, sans-serif">Shot 3 / Cam C / 6.5-10s</text>
    <text x="24" y="236" fill="#203449" font-size="19" font-family="Helvetica Neue, Arial, sans-serif">Chloe notices the feeder already dispensing food.</text>
  </g>

  <g transform="translate(1214 210)">
    <rect width="306" height="250" rx="24" fill="#F8EDD8" stroke="#203449" stroke-width="3"/>
    <rect x="20" y="20" width="266" height="150" rx="18" fill="#DCE6EF"/>
    <circle cx="112" cy="120" r="36" fill="#E38939"/>
    <rect x="170" y="88" width="58" height="64" rx="12" fill="#F6C445"/>
    <circle cx="164" cy="132" r="10" fill="#203449"/>
    <text x="24" y="204" fill="#203449" font-size="22" font-family="Arial Black, sans-serif">Shot 4 / Cam D / 10-13s</text>
    <text x="24" y="236" fill="#203449" font-size="18" font-family="Helvetica Neue, Arial, sans-serif">Reveal: Nacho taps the button and steals the scene.</text>
  </g>

  <g transform="translate(298 520)">
    <rect width="1004" height="250" rx="24" fill="#FAF3E6" stroke="#203449" stroke-width="3"/>
    <rect x="28" y="26" width="948" height="148" rx="18" fill="#DCE6EF"/>
    <rect x="66" y="100" width="106" height="46" rx="12" fill="#D8B491"/>
    <rect x="246" y="90" width="250" height="56" rx="16" fill="#CFB69A"/>
    <circle cx="188" cy="136" r="20" fill="#2C6E91"/>
    <circle cx="534" cy="132" r="20" fill="#D1A82A"/>
    <circle cx="620" cy="144" r="18" fill="#E38939"/>
    <text x="36" y="206" fill="#203449" font-size="24" font-family="Arial Black, sans-serif">Shot 5 / Cam A / 13-15s</text>
    <text x="36" y="238" fill="#203449" font-size="20" font-family="Helvetica Neue, Arial, sans-serif">Back to the wide. Chloe lands the line: "Congrats. You've been replaced."</text>
  </g>
</svg>
