<svg xmlns="http://www.w3.org/2000/svg" width="1600" height="900" viewBox="0 0 1600 900">
  <rect width="1600" height="900" fill="#0e1318"/>
  <rect x="30" y="30" width="1540" height="840" rx="26" fill="#141c24" stroke="#2fd0ff" stroke-width="3"/>
  <text x="70" y="95" fill="#f3f7fb" font-size="42" font-family="Arial, Helvetica, sans-serif" font-weight="700">人物图</text>
  <text x="70" y="132" fill="#86dfff" font-size="20" font-family="Arial, Helvetica, sans-serif">精灵快递员地铁追逐 · 角色一致性锁定板</text>

  <rect x="60" y="165" width="930" height="675" rx="22" fill="#10171e" stroke="#3b4d5e" stroke-width="2"/>
  <rect x="1015" y="165" width="525" height="675" rx="22" fill="#10171e" stroke="#3b4d5e" stroke-width="2"/>

  <text x="95" y="215" fill="#f1f5f9" font-size="28" font-family="Arial, Helvetica, sans-serif" font-weight="700">女主 · 女性精灵快递员</text>
  <text x="1038" y="215" fill="#f1f5f9" font-size="28" font-family="Arial, Helvetica, sans-serif" font-weight="700">追兵 · 黑衣男性骑手</text>

  <rect x="90" y="245" width="270" height="255" rx="18" fill="#17222c" stroke="#4f6577"/>
  <rect x="390" y="245" width="270" height="255" rx="18" fill="#17222c" stroke="#4f6577"/>
  <rect x="690" y="245" width="270" height="255" rx="18" fill="#17222c" stroke="#4f6577"/>
  <rect x="90" y="535" width="420" height="270" rx="18" fill="#17222c" stroke="#4f6577"/>
  <rect x="540" y="535" width="420" height="270" rx="18" fill="#17222c" stroke="#4f6577"/>

  <text x="112" y="278" fill="#cce8f6" font-size="22" font-family="Arial, Helvetica, sans-serif">正面全身</text>
  <text x="412" y="278" fill="#cce8f6" font-size="22" font-family="Arial, Helvetica, sans-serif">三分之二侧身</text>
  <text x="712" y="278" fill="#cce8f6" font-size="22" font-family="Arial, Helvetica, sans-serif">背面</text>
  <text x="112" y="568" fill="#cce8f6" font-size="22" font-family="Arial, Helvetica, sans-serif">识别特征</text>
  <text x="562" y="568" fill="#cce8f6" font-size="22" font-family="Arial, Helvetica, sans-serif">服装与动作气质</text>

  <circle cx="225" cy="335" r="46" fill="#f4dccd"/>
  <path d="M178 320 Q225 245 272 320 L262 358 Q225 374 188 358 Z" fill="#cfd8f9"/>
  <path d="M278 336 l32 10 -28 16 z" fill="#d8dffb"/>
  <path d="M172 336 l-32 10 28 16 z" fill="#d8dffb"/>
  <rect x="188" y="385" width="74" height="78" rx="18" fill="#1f2a36" stroke="#6ce7ff" stroke-width="2"/>
  <line x1="225" y1="385" x2="225" y2="463" stroke="#6ce7ff" stroke-width="3"/>
  <rect x="197" y="463" width="22" height="82" fill="#111920"/>
  <rect x="231" y="463" width="22" height="82" fill="#111920"/>
  <line x1="178" y1="405" x2="140" y2="452" stroke="#f4dccd" stroke-width="12" stroke-linecap="round"/>
  <line x1="272" y1="405" x2="310" y2="452" stroke="#f4dccd" stroke-width="12" stroke-linecap="round"/>

  <circle cx="525" cy="335" r="46" fill="#f4dccd"/>
  <path d="M486 312 Q528 247 570 316 L560 352 Q530 372 492 360 Z" fill="#cfd8f9"/>
  <path d="M576 336 l34 12 -29 17 z" fill="#d8dffb"/>
  <rect x="494" y="385" width="68" height="78" rx="18" fill="#1f2a36" stroke="#6ce7ff" stroke-width="2"/>
  <line x1="528" y1="385" x2="528" y2="463" stroke="#6ce7ff" stroke-width="3"/>
  <line x1="494" y1="415" x2="455" y2="447" stroke="#f4dccd" stroke-width="12" stroke-linecap="round"/>
  <line x1="562" y1="415" x2="595" y2="445" stroke="#f4dccd" stroke-width="12" stroke-linecap="round"/>
  <rect x="503" y="463" width="20" height="82" fill="#111920"/>
  <rect x="533" y="463" width="20" height="82" fill="#111920"/>

  <circle cx="825" cy="335" r="46" fill="#d0d8ef"/>
  <path d="M780 316 Q825 248 870 316 L858 354 Q825 372 792 354 Z" fill="#cfd8f9"/>
  <path d="M825 244 q35 42 28 100" fill="none" stroke="#cfd8f9" stroke-width="20" stroke-linecap="round"/>
  <rect x="790" y="385" width="70" height="78" rx="18" fill="#1f2a36" stroke="#6ce7ff" stroke-width="2"/>
  <line x1="825" y1="385" x2="825" y2="463" stroke="#6ce7ff" stroke-width="3"/>
  <rect x="800" y="463" width="20" height="82" fill="#111920"/>
  <rect x="830" y="463" width="20" height="82" fill="#111920"/>

  <text x="120" y="615" fill="#edf7ff" font-size="24" font-family="Arial, Helvetica, sans-serif">银白色高马尾</text>
  <text x="120" y="653" fill="#edf7ff" font-size="24" font-family="Arial, Helvetica, sans-serif">细长精灵耳</text>
  <text x="120" y="691" fill="#edf7ff" font-size="24" font-family="Arial, Helvetica, sans-serif">发光紫色眼睛</text>
  <text x="120" y="729" fill="#edf7ff" font-size="24" font-family="Arial, Helvetica, sans-serif">黑银短款机车夹克</text>
  <text x="120" y="767" fill="#edf7ff" font-size="24" font-family="Arial, Helvetica, sans-serif">青蓝发光纹路</text>

  <text x="570" y="615" fill="#edf7ff" font-size="24" font-family="Arial, Helvetica, sans-serif">黑色短裙式战术下装</text>
  <text x="570" y="653" fill="#edf7ff" font-size="24" font-family="Arial, Helvetica, sans-serif">深色长靴</text>
  <text x="570" y="691" fill="#edf7ff" font-size="24" font-family="Arial, Helvetica, sans-serif">骑行动作精准冷静</text>
  <text x="570" y="729" fill="#edf7ff" font-size="24" font-family="Arial, Helvetica, sans-serif">不能改发色、发型、服装结构</text>

  <rect x="1040" y="245" width="220" height="255" rx="18" fill="#17222c" stroke="#4f6577"/>
  <rect x="1285" y="245" width="220" height="255" rx="18" fill="#17222c" stroke="#4f6577"/>
  <rect x="1040" y="535" width="465" height="270" rx="18" fill="#17222c" stroke="#4f6577"/>

  <text x="1060" y="278" fill="#cce8f6" font-size="22" font-family="Arial, Helvetica, sans-serif">正面全身</text>
  <text x="1305" y="278" fill="#cce8f6" font-size="22" font-family="Arial, Helvetica, sans-serif">骑行姿态</text>
  <text x="1060" y="568" fill="#cce8f6" font-size="22" font-family="Arial, Helvetica, sans-serif">识别特征</text>

  <circle cx="1150" cy="335" r="44" fill="#9c7c67"/>
  <rect x="1114" y="348" width="72" height="28" rx="10" fill="#0c1115"/>
  <rect x="1110" y="384" width="80" height="82" rx="20" fill="#202830"/>
  <line x1="1150" y1="466" x2="1150" y2="542" stroke="#202830" stroke-width="26" stroke-linecap="round"/>
  <line x1="1110" y1="410" x2="1072" y2="458" stroke="#202830" stroke-width="14" stroke-linecap="round"/>
  <line x1="1190" y1="410" x2="1228" y2="458" stroke="#202830" stroke-width="14" stroke-linecap="round"/>

  <circle cx="1395" cy="335" r="40" fill="#9c7c67"/>
  <rect x="1362" y="348" width="66" height="26" rx="9" fill="#0c1115"/>
  <path d="M1332 415 Q1394 358 1458 422" fill="none" stroke="#202830" stroke-width="24" stroke-linecap="round"/>
  <path d="M1382 390 l58 44" stroke="#202830" stroke-width="14" stroke-linecap="round"/>

  <text x="1070" y="615" fill="#edf7ff" font-size="24" font-family="Arial, Helvetica, sans-serif">剃光头</text>
  <text x="1070" y="653" fill="#edf7ff" font-size="24" font-family="Arial, Helvetica, sans-serif">黑色半脸呼吸面罩</text>
  <text x="1070" y="691" fill="#edf7ff" font-size="24" font-family="Arial, Helvetica, sans-serif">深灰黑色骑行服</text>
  <text x="1070" y="729" fill="#edf7ff" font-size="24" font-family="Arial, Helvetica, sans-serif">动作更重、更猛</text>
  <text x="1070" y="767" fill="#edf7ff" font-size="24" font-family="Arial, Helvetica, sans-serif">不能改成全盔或浅色服装</text>

  <text x="70" y="870" fill="#88a7ba" font-size="18" font-family="Arial, Helvetica, sans-serif">说明：这是角色锁定板，用于后续场景图、机位图、封装图和视频生成保持一致性。</text>
</svg>
